<svg xmlns="http://www.w3.org/2000/svg" xmlns:xlink="http://www.w3.org/1999/xlink" width="137" height="142.13" viewBox="0 0 137 142.13">
  <defs>
    <filter id="Каменов_ЕООД" x="0" y="93.13" width="137" height="49" filterUnits="userSpaceOnUse">
      <feOffset dx="-4" dy="8" input="SourceAlpha"/>
      <feGaussianBlur stdDeviation="5" result="blur"/>
      <feFlood flood-color="#666" flood-opacity="0.259"/>
      <feComposite operator="in" in2="blur"/>
      <feComposite in="SourceGraphic"/>
    </filter>
  </defs>
  <g id="Group_1696" data-name="Group 1696" transform="translate(-426.652 -54.616)">
    <g id="wood-chisel-used-to-carve-wood" transform="translate(448.615 54.616)">
      <g id="Group_1691" data-name="Group 1691" transform="translate(0 38.842)">
        <path id="Path_6500" data-name="Path 6500" d="M.854,145.994A.854.854,0,0,1,0,145.14V129.631a.855.855,0,0,1,.854-.854H24.167c.046-.047.1-.1.152-.158,1.337-1.389,5.4-5.62,4.659-10.555-.553-3.66-3.62-7.056-9.116-10.094-6.707-3.708-11.7-4.494-14.457-2.263-2.68,2.17-2.795,6.923-2.027,9.452.648,2.132,1.7,3.429,3.131,3.858,3.393,1.023,8.052-2.806,8.1-2.844A.853.853,0,0,1,15.7,117.48c-.218.182-5.392,4.44-9.677,3.171-2.015-.6-3.454-2.284-4.279-5C.815,112.589,1,107.069,4.33,104.377c3.38-2.738,8.886-2.033,16.357,2.1,5.984,3.308,9.342,7.122,9.979,11.334.871,5.765-3.637,10.452-5.116,11.991-.161.169-.284.295-.352.377a.857.857,0,0,1-.656.306H1.707V145.14A.852.852,0,0,1,.854,145.994Z" transform="translate(0 -102.743)" fill="#383836"/>
      </g>
      <g id="Group_1692" data-name="Group 1692" transform="translate(0 64.876)">
        <path id="Path_6501" data-name="Path 6501" d="M29.709,163.694v-5.762H1.752v15.509H104.4v-9.747Z" transform="translate(-0.898 -157.078)" fill="#383836"/>
        <path id="Path_6502" data-name="Path 6502" d="M104.356,173.4H0V156.18H29.664v5.762h74.693ZM1.707,171.689H102.649v-8.04H27.957v-5.762H1.707Z" transform="translate(0 -156.18)" fill="#383836"/>
      </g>
      <g id="Group_1693" data-name="Group 1693" transform="translate(29.07 35.79)">
        <path id="Path_6503" data-name="Path 6503" d="M85.7,105.076l2.987-5.688,5.762,5.688-6.189,2.347L61.421,131.965V127.91Z" transform="translate(-60.567 -97.971)" fill="#383836"/>
        <path id="Path_6504" data-name="Path 6504" d="M59.669,132.411V126.05l24.448-22.99,3.456-6.581,7.528,7.434-7.281,2.759Zm1.707-5.622v1.748l25.688-23.4,4.946-1.877-4-3.946L85.391,104.2Z" transform="translate(-59.669 -96.479)" fill="#383836"/>
      </g>
      <g id="Group_1694" data-name="Group 1694" transform="translate(57.3 28.181)">
        <path id="Path_6505" data-name="Path 6505" d="M120.022,88.374l7.47,7.683,4.908-3.842-7.9-8.75Z" transform="translate(-118.848 -82.197)" fill="#383836"/>
        <path id="Path_6506" data-name="Path 6506" d="M126.177,95.868l-8.565-8.81,5.657-6.2,9.142,10.13ZM119.96,87.02l6.375,6.556,3.581-2.8-6.65-7.371Z" transform="translate(-117.612 -80.861)" fill="#383836"/>
      </g>
      <g id="Group_1695" data-name="Group 1695" transform="translate(63.452 0)">
        <path id="Path_6507" data-name="Path 6507" d="M132.726,51.232l8.536,9.891L154.707,48.03l15.152-12.164,1.708-3.628-6.829-7.47h-4.055L146.17,39.921Z" transform="translate(-131.515 -23.915)" fill="#383836"/>
        <path id="Path_6508" data-name="Path 6508" d="M139.934,61.467,130.24,50.236l14.105-11.868,14.7-15.352h4.8l7.469,8.17-2.034,4.323L153.968,47.8Zm-7.272-11.038,7.379,8.551,12.8-12.46,15.057-12.095,1.382-2.933-6.19-6.77h-3.311l-14.261,14.89Z" transform="translate(-130.24 -23.017)" fill="#383836"/>
      </g>
    </g>
    <g id="chisel" transform="translate(501.046 89.833) rotate(45)">
      <path id="Path_6481" data-name="Path 6481" d="M7.146,8.735a.894.894,0,0,0,1.264,0l.324-.323a.894.894,0,0,0,0-1.264L1.849.262a.894.894,0,0,0-1.264,0L.262.585a.894.894,0,0,0,0,1.264Z" transform="translate(25.926 45.675)" fill="#383836"/>
      <path id="Path_6482" data-name="Path 6482" d="M0,13.375,2.327,15.7,8.116,9.913A.907.907,0,0,1,8.9,9.66l4.473.729,4.34-4.34L7.64,0,5.313,2.328,6.042,6.8a.905.905,0,0,1-.253.786Z" transform="translate(31.334 33.561)" fill="#383836"/>
      <path id="Path_6483" data-name="Path 6483" d="M9.6,12.97a9.09,9.09,0,0,1,6.589-8.9L12.116,0A8.879,8.879,0,0,1,3.532,6.9,5.958,5.958,0,0,0,0,8.37L8.129,16.5A5.958,5.958,0,0,0,9.6,12.97Z" transform="translate(14.21 50.223)" fill="#383836"/>
      <path id="Path_6484" data-name="Path 6484" d="M11.432,5.938,1.247,0,0,1.247,10.075,7.3Z" transform="translate(40.294 30.994)" fill="#383836"/>
      <path id="Path_6485" data-name="Path 6485" d="M5.783,9.756A6.162,6.162,0,0,0,9.613,8.131L1.482,0a5.964,5.964,0,0,0,.266,8.152A5.35,5.35,0,0,0,5.783,9.756Z" transform="translate(0 71.32)" fill="#383836"/>
      <path id="Path_6486" data-name="Path 6486" d="M0,0H14.38V11.525H0Z" transform="translate(2.743 70.025) rotate(-45)" fill="#383836"/>
      <path id="Path_6487" data-name="Path 6487" d="M11.549,5.938,1.364,0,0,1.364,10.185,7.3Z" transform="translate(56.304 14.867)" fill="#383836"/>
      <path id="Path_6488" data-name="Path 6488" d="M11.549,5.938,1.364,0,0,1.364,10.185,7.3Z" transform="translate(53.616 17.555)" fill="#383836"/>
      <path id="Path_6489" data-name="Path 6489" d="M11.549,5.938,1.364,0,0,1.364,10.185,7.3Z" transform="translate(50.928 20.243)" fill="#383836"/>
      <path id="Path_6490" data-name="Path 6490" d="M11.549,5.938,1.364,0,0,1.364,10.185,7.3Z" transform="translate(42.865 28.306)" fill="#383836"/>
      <path id="Path_6491" data-name="Path 6491" d="M11.549,5.938,1.364,0,0,1.364,10.185,7.3Z" transform="translate(58.992 12.179)" fill="#383836"/>
      <path id="Path_6492" data-name="Path 6492" d="M11.549,5.938,1.364,0,0,1.364,10.185,7.3Z" transform="translate(45.553 25.619)" fill="#383836"/>
      <path id="Path_6493" data-name="Path 6493" d="M11.549,5.938,1.364,0,0,1.364,10.185,7.3Z" transform="translate(48.241 22.93)" fill="#383836"/>
      <path id="Path_6494" data-name="Path 6494" d="M10.853,8.061,2.791,0,0,2.791,10.185,8.729Z" transform="translate(69.744 0)" fill="#383836"/>
      <path id="Path_6495" data-name="Path 6495" d="M11.549,5.938,1.364,0,0,1.364,10.185,7.3Z" transform="translate(64.368 6.803)" fill="#383836"/>
      <path id="Path_6496" data-name="Path 6496" d="M11.549,5.938,1.364,0,0,1.364,10.185,7.3Z" transform="translate(61.68 9.491)" fill="#383836"/>
      <path id="Path_6497" data-name="Path 6497" d="M11.549,5.938,1.364,0,0,1.364,10.185,7.3Z" transform="translate(67.056 4.115)" fill="#383836"/>
    </g>
    <g transform="matrix(1, 0, 0, 1, 426.65, 54.62)" filter="url(#Каменов_ЕООД)">
      <text id="Каменов_ЕООД-2" data-name="Каменов ЕООД" transform="translate(19 115.13)" fill="#383836" font-size="15" font-family="IBMPlexSans-Regular, IBM Plex Sans" letter-spacing="0.002em"><tspan x="0" y="0">Каменов ЕООД</tspan></text>
    </g>
  </g>
</svg>
